<svg width="41" height="42" viewBox="0 0 41 42" fill="none" xmlns="http://www.w3.org/2000/svg">
<path fill-rule="evenodd" clip-rule="evenodd" d="M27.2 28C34.7111 28 40.8 21.732 40.8 14C40.8 6.26801 34.7111 0 27.2 0C19.8189 0 13.8111 6.05299 13.6054 13.6C13.6036 13.6 13.6018 13.6 13.6 13.6C6.08893 13.6 0 19.868 0 27.6C0 35.332 6.08893 41.6 13.6 41.6C20.9811 41.6 26.9889 35.547 27.1946 28C27.1964 28 27.1982 28 27.2 28ZM13.6 14C13.6 21.7301 19.686 27.997 27.1946 28C27.1982 27.8671 27.2 27.7338 27.2 27.6C27.2 19.8699 21.114 13.603 13.6054 13.6C13.6018 13.7329 13.6 13.8662 13.6 14Z" fill="#D8D8D8"/>
</svg>
